<svg xmlns="http://www.w3.org/2000/svg" xmlns:xlink="http://www.w3.org/1999/xlink" width="60" zoomAndPan="magnify" viewBox="0 0 45 44.999999" height="60" preserveAspectRatio="xMidYMid meet" version="1.0"><defs><clipPath id="9ccb55ec11"><path d="M 1.648438 1.648438 L 44.398438 1.648438 L 44.398438 44.398438 L 1.648438 44.398438 Z M 1.648438 1.648438 " clip-rule="nonzero"/></clipPath><clipPath id="595b8480b9"><path d="M 16.984375 13.109375 L 44.09375 13.109375 L 44.09375 44.09375 L 16.984375 44.09375 Z M 16.984375 13.109375 " clip-rule="nonzero"/></clipPath><clipPath id="33cbf96643"><path d="M 44.09375 22.871094 C 44.09375 34.59375 34.59375 44.09375 22.871094 44.09375 C 11.152344 44.09375 1.648438 34.59375 1.648438 22.871094 C 1.648438 11.152344 11.152344 1.648438 22.871094 1.648438 C 34.59375 1.648438 44.09375 11.152344 44.09375 22.871094 Z M 44.09375 22.871094 " clip-rule="nonzero"/></clipPath></defs><g clip-path="url(#9ccb55ec11)"><path fill="#5ce1e6" d="M 44.09375 22.871094 C 44.09375 34.59375 34.59375 44.09375 22.871094 44.09375 C 11.152344 44.09375 1.648438 34.59375 1.648438 22.871094 C 1.648438 11.152344 11.152344 1.648438 22.871094 1.648438 C 34.59375 1.648438 44.09375 11.152344 44.09375 22.871094 " fill-opacity="1" fill-rule="nonzero"/></g><g clip-path="url(#595b8480b9)"><g clip-path="url(#33cbf96643)"><path fill="#5ce1e6" d="M 53.539062 30.273438 L 36.40625 13.140625 L 16.996094 32.660156 L 32.539062 48.199219 L 53.539062 30.273438 " fill-opacity="1" fill-rule="nonzero"/></g></g><path fill="#ffffff" d="M 36.40625 13.140625 C 35.839844 12.574219 35.085938 12.261719 34.285156 12.261719 C 33.484375 12.261719 32.730469 12.574219 32.164062 13.140625 L 19.066406 26.234375 L 13.582031 20.75 C 13.015625 20.183594 12.261719 19.871094 11.460938 19.871094 C 10.660156 19.871094 9.90625 20.183594 9.339844 20.75 C 8.167969 21.921875 8.167969 23.824219 9.339844 24.996094 L 16.917969 32.574219 C 16.925781 32.582031 16.933594 32.59375 16.945312 32.601562 C 17.089844 32.746094 17.246094 32.875 17.414062 32.988281 C 17.90625 33.3125 18.480469 33.484375 19.070312 33.484375 C 19.871094 33.484375 20.625 33.171875 21.191406 32.605469 C 21.21875 32.578125 35.789062 18.003906 36.40625 17.382812 C 36.972656 16.816406 37.285156 16.0625 37.285156 15.261719 C 37.285156 14.460938 36.972656 13.707031 36.40625 13.140625 " fill-opacity="1" fill-rule="nonzero"/></svg>